<?xml version="1.0" encoding="UTF-8"?>
<svg xmlns="http://www.w3.org/2000/svg" viewBox="0 0 1200 700" width="1200" height="700">
  <defs>
    <style>text { font-family: 'Inter', 'SF Pro Text', system-ui, -apple-system, sans-serif; }</style>
    <marker id="arrow-blue" markerWidth="8" markerHeight="8" refX="7" refY="4" orient="auto">
      <path d="M 0 0 L 8 4 L 0 8 Z" fill="#0066cc"/>
    </marker>
  </defs>
  <rect width="1200" height="700" fill="#0a0a0c" rx="20"/>
  <circle cx="30" cy="30" r="0.7" fill="rgba(255,255,255,0.03)"/><circle cx="30" cy="80" r="0.7" fill="rgba(255,255,255,0.03)"/><circle cx="30" cy="130" r="0.7" fill="rgba(255,255,255,0.03)"/><circle cx="30" cy="180" r="0.7" fill="rgba(255,255,255,0.03)"/><circle cx="30" cy="230" r="0.7" fill="rgba(255,255,255,0.03)"/><circle cx="30" cy="280" r="0.7" fill="rgba(255,255,255,0.03)"/><circle cx="30" cy="330" r="0.7" fill="rgba(255,255,255,0.03)"/><circle cx="30" cy="380" r="0.7" fill="rgba(255,255,255,0.03)"/><circle cx="30" cy="430" r="0.7" fill="rgba(255,255,255,0.03)"/><circle cx="30" cy="480" r="0.7" fill="rgba(255,255,255,0.03)"/><circle cx="30" cy="530" r="0.7" fill="rgba(255,255,255,0.03)"/><circle cx="30" cy="580" r="0.7" fill="rgba(255,255,255,0.03)"/><circle cx="30" cy="630" r="0.7" fill="rgba(255,255,255,0.03)"/><circle cx="30" cy="680" r="0.7" fill="rgba(255,255,255,0.03)"/><circle cx="80" cy="30" r="0.7" fill="rgba(255,255,255,0.03)"/><circle cx="80" cy="80" r="0.7" fill="rgba(255,255,255,0.03)"/><circle cx="80" cy="130" r="0.7" fill="rgba(255,255,255,0.03)"/><circle cx="80" cy="180" r="0.7" fill="rgba(255,255,255,0.03)"/><circle cx="80" cy="230" r="0.7" fill="rgba(255,255,255,0.03)"/><circle cx="80" cy="280" r="0.7" fill="rgba(255,255,255,0.03)"/><circle cx="80" cy="330" r="0.7" fill="rgba(255,255,255,0.03)"/><circle cx="80" cy="380" r="0.7" fill="rgba(255,255,255,0.03)"/><circle cx="80" cy="430" r="0.7" fill="rgba(255,255,255,0.03)"/><circle cx="80" cy="480" r="0.7" fill="rgba(255,255,255,0.03)"/><circle cx="80" cy="530" r="0.7" fill="rgba(255,255,255,0.03)"/><circle cx="80" cy="580" r="0.7" fill="rgba(255,255,255,0.03)"/><circle cx="80" cy="630" r="0.7" fill="rgba(255,255,255,0.03)"/><circle cx="80" cy="680" r="0.7" fill="rgba(255,255,255,0.03)"/><circle cx="130" cy="30" r="0.7" fill="rgba(255,255,255,0.03)"/><circle cx="130" cy="80" r="0.7" fill="rgba(255,255,255,0.03)"/><circle cx="130" cy="130" r="0.7" fill="rgba(255,255,255,0.03)"/><circle cx="130" cy="180" r="0.7" fill="rgba(255,255,255,0.03)"/><circle cx="130" cy="230" r="0.7" fill="rgba(255,255,255,0.03)"/><circle cx="130" cy="280" r="0.7" fill="rgba(255,255,255,0.03)"/><circle cx="130" cy="330" r="0.7" fill="rgba(255,255,255,0.03)"/><circle cx="130" cy="380" r="0.7" fill="rgba(255,255,255,0.03)"/><circle cx="130" cy="430" r="0.7" fill="rgba(255,255,255,0.03)"/><circle cx="130" cy="480" r="0.7" fill="rgba(255,255,255,0.03)"/><circle cx="130" cy="530" r="0.7" fill="rgba(255,255,255,0.03)"/><circle cx="130" cy="580" r="0.7" fill="rgba(255,255,255,0.03)"/><circle cx="130" cy="630" r="0.7" fill="rgba(255,255,255,0.03)"/><circle cx="130" cy="680" r="0.7" fill="rgba(255,255,255,0.03)"/><circle cx="180" cy="30" r="0.7" fill="rgba(255,255,255,0.03)"/><circle cx="180" cy="80" r="0.7" fill="rgba(255,255,255,0.03)"/><circle cx="180" cy="130" r="0.7" fill="rgba(255,255,255,0.03)"/><circle cx="180" cy="180" r="0.7" fill="rgba(255,255,255,0.03)"/><circle cx="180" cy="230" r="0.7" fill="rgba(255,255,255,0.03)"/><circle cx="180" cy="280" r="0.7" fill="rgba(255,255,255,0.03)"/><circle cx="180" cy="330" r="0.7" fill="rgba(255,255,255,0.03)"/><circle cx="180" cy="380" r="0.7" fill="rgba(255,255,255,0.03)"/><circle cx="180" cy="430" r="0.7" fill="rgba(255,255,255,0.03)"/><circle cx="180" cy="480" r="0.7" fill="rgba(255,255,255,0.03)"/><circle cx="180" cy="530" r="0.7" fill="rgba(255,255,255,0.03)"/><circle cx="180" cy="580" r="0.7" fill="rgba(255,255,255,0.03)"/><circle cx="180" cy="630" r="0.7" fill="rgba(255,255,255,0.03)"/><circle cx="180" cy="680" r="0.7" fill="rgba(255,255,255,0.03)"/><circle cx="230" cy="30" r="0.7" fill="rgba(255,255,255,0.03)"/><circle cx="230" cy="80" r="0.7" fill="rgba(255,255,255,0.03)"/><circle cx="230" cy="130" r="0.7" fill="rgba(255,255,255,0.03)"/><circle cx="230" cy="180" r="0.7" fill="rgba(255,255,255,0.03)"/><circle cx="230" cy="230" r="0.7" fill="rgba(255,255,255,0.03)"/><circle cx="230" cy="280" r="0.7" fill="rgba(255,255,255,0.03)"/><circle cx="230" cy="330" r="0.7" fill="rgba(255,255,255,0.03)"/><circle cx="230" cy="380" r="0.7" fill="rgba(255,255,255,0.03)"/><circle cx="230" cy="430" r="0.7" fill="rgba(255,255,255,0.03)"/><circle cx="230" cy="480" r="0.7" fill="rgba(255,255,255,0.03)"/><circle cx="230" cy="530" r="0.7" fill="rgba(255,255,255,0.03)"/><circle cx="230" cy="580" r="0.7" fill="rgba(255,255,255,0.03)"/><circle cx="230" cy="630" r="0.7" fill="rgba(255,255,255,0.03)"/><circle cx="230" cy="680" r="0.7" fill="rgba(255,255,255,0.03)"/><circle cx="280" cy="30" r="0.7" fill="rgba(255,255,255,0.03)"/><circle cx="280" cy="80" r="0.7" fill="rgba(255,255,255,0.03)"/><circle cx="280" cy="130" r="0.7" fill="rgba(255,255,255,0.03)"/><circle cx="280" cy="180" r="0.7" fill="rgba(255,255,255,0.03)"/><circle cx="280" cy="230" r="0.7" fill="rgba(255,255,255,0.03)"/><circle cx="280" cy="280" r="0.7" fill="rgba(255,255,255,0.03)"/><circle cx="280" cy="330" r="0.7" fill="rgba(255,255,255,0.03)"/><circle cx="280" cy="380" r="0.7" fill="rgba(255,255,255,0.03)"/><circle cx="280" cy="430" r="0.7" fill="rgba(255,255,255,0.03)"/><circle cx="280" cy="480" r="0.7" fill="rgba(255,255,255,0.03)"/><circle cx="280" cy="530" r="0.7" fill="rgba(255,255,255,0.03)"/><circle cx="280" cy="580" r="0.7" fill="rgba(255,255,255,0.03)"/><circle cx="280" cy="630" r="0.7" fill="rgba(255,255,255,0.03)"/><circle cx="280" cy="680" r="0.7" fill="rgba(255,255,255,0.03)"/><circle cx="330" cy="30" r="0.7" fill="rgba(255,255,255,0.03)"/><circle cx="330" cy="80" r="0.7" fill="rgba(255,255,255,0.03)"/><circle cx="330" cy="130" r="0.7" fill="rgba(255,255,255,0.03)"/><circle cx="330" cy="180" r="0.7" fill="rgba(255,255,255,0.03)"/><circle cx="330" cy="230" r="0.7" fill="rgba(255,255,255,0.03)"/><circle cx="330" cy="280" r="0.7" fill="rgba(255,255,255,0.03)"/><circle cx="330" cy="330" r="0.7" fill="rgba(255,255,255,0.03)"/><circle cx="330" cy="380" r="0.7" fill="rgba(255,255,255,0.03)"/><circle cx="330" cy="430" r="0.7" fill="rgba(255,255,255,0.03)"/><circle cx="330" cy="480" r="0.7" fill="rgba(255,255,255,0.03)"/><circle cx="330" cy="530" r="0.7" fill="rgba(255,255,255,0.03)"/><circle cx="330" cy="580" r="0.7" fill="rgba(255,255,255,0.03)"/><circle cx="330" cy="630" r="0.7" fill="rgba(255,255,255,0.03)"/><circle cx="330" cy="680" r="0.7" fill="rgba(255,255,255,0.03)"/><circle cx="380" cy="30" r="0.7" fill="rgba(255,255,255,0.03)"/><circle cx="380" cy="80" r="0.7" fill="rgba(255,255,255,0.03)"/><circle cx="380" cy="130" r="0.7" fill="rgba(255,255,255,0.03)"/><circle cx="380" cy="180" r="0.7" fill="rgba(255,255,255,0.03)"/><circle cx="380" cy="230" r="0.7" fill="rgba(255,255,255,0.03)"/><circle cx="380" cy="280" r="0.7" fill="rgba(255,255,255,0.03)"/><circle cx="380" cy="330" r="0.7" fill="rgba(255,255,255,0.03)"/><circle cx="380" cy="380" r="0.7" fill="rgba(255,255,255,0.03)"/><circle cx="380" cy="430" r="0.7" fill="rgba(255,255,255,0.03)"/><circle cx="380" cy="480" r="0.7" fill="rgba(255,255,255,0.03)"/><circle cx="380" cy="530" r="0.7" fill="rgba(255,255,255,0.03)"/><circle cx="380" cy="580" r="0.7" fill="rgba(255,255,255,0.03)"/><circle cx="380" cy="630" r="0.7" fill="rgba(255,255,255,0.03)"/><circle cx="380" cy="680" r="0.7" fill="rgba(255,255,255,0.03)"/><circle cx="430" cy="30" r="0.7" fill="rgba(255,255,255,0.03)"/><circle cx="430" cy="80" r="0.7" fill="rgba(255,255,255,0.03)"/><circle cx="430" cy="130" r="0.7" fill="rgba(255,255,255,0.03)"/><circle cx="430" cy="180" r="0.7" fill="rgba(255,255,255,0.03)"/><circle cx="430" cy="230" r="0.7" fill="rgba(255,255,255,0.03)"/><circle cx="430" cy="280" r="0.7" fill="rgba(255,255,255,0.03)"/><circle cx="430" cy="330" r="0.7" fill="rgba(255,255,255,0.03)"/><circle cx="430" cy="380" r="0.7" fill="rgba(255,255,255,0.03)"/><circle cx="430" cy="430" r="0.7" fill="rgba(255,255,255,0.03)"/><circle cx="430" cy="480" r="0.7" fill="rgba(255,255,255,0.03)"/><circle cx="430" cy="530" r="0.7" fill="rgba(255,255,255,0.03)"/><circle cx="430" cy="580" r="0.7" fill="rgba(255,255,255,0.03)"/><circle cx="430" cy="630" r="0.7" fill="rgba(255,255,255,0.03)"/><circle cx="430" cy="680" r="0.7" fill="rgba(255,255,255,0.03)"/><circle cx="480" cy="30" r="0.7" fill="rgba(255,255,255,0.03)"/><circle cx="480" cy="80" r="0.7" fill="rgba(255,255,255,0.03)"/><circle cx="480" cy="130" r="0.7" fill="rgba(255,255,255,0.03)"/><circle cx="480" cy="180" r="0.7" fill="rgba(255,255,255,0.03)"/><circle cx="480" cy="230" r="0.7" fill="rgba(255,255,255,0.03)"/><circle cx="480" cy="280" r="0.7" fill="rgba(255,255,255,0.03)"/><circle cx="480" cy="330" r="0.7" fill="rgba(255,255,255,0.03)"/><circle cx="480" cy="380" r="0.7" fill="rgba(255,255,255,0.03)"/><circle cx="480" cy="430" r="0.7" fill="rgba(255,255,255,0.03)"/><circle cx="480" cy="480" r="0.7" fill="rgba(255,255,255,0.03)"/><circle cx="480" cy="530" r="0.7" fill="rgba(255,255,255,0.03)"/><circle cx="480" cy="580" r="0.7" fill="rgba(255,255,255,0.03)"/><circle cx="480" cy="630" r="0.7" fill="rgba(255,255,255,0.03)"/><circle cx="480" cy="680" r="0.7" fill="rgba(255,255,255,0.03)"/><circle cx="530" cy="30" r="0.7" fill="rgba(255,255,255,0.03)"/><circle cx="530" cy="80" r="0.7" fill="rgba(255,255,255,0.03)"/><circle cx="530" cy="130" r="0.7" fill="rgba(255,255,255,0.03)"/><circle cx="530" cy="180" r="0.7" fill="rgba(255,255,255,0.03)"/><circle cx="530" cy="230" r="0.7" fill="rgba(255,255,255,0.03)"/><circle cx="530" cy="280" r="0.7" fill="rgba(255,255,255,0.03)"/><circle cx="530" cy="330" r="0.7" fill="rgba(255,255,255,0.03)"/><circle cx="530" cy="380" r="0.7" fill="rgba(255,255,255,0.03)"/><circle cx="530" cy="430" r="0.7" fill="rgba(255,255,255,0.03)"/><circle cx="530" cy="480" r="0.7" fill="rgba(255,255,255,0.03)"/><circle cx="530" cy="530" r="0.7" fill="rgba(255,255,255,0.03)"/><circle cx="530" cy="580" r="0.7" fill="rgba(255,255,255,0.03)"/><circle cx="530" cy="630" r="0.7" fill="rgba(255,255,255,0.03)"/><circle cx="530" cy="680" r="0.7" fill="rgba(255,255,255,0.03)"/><circle cx="580" cy="30" r="0.7" fill="rgba(255,255,255,0.03)"/><circle cx="580" cy="80" r="0.7" fill="rgba(255,255,255,0.03)"/><circle cx="580" cy="130" r="0.7" fill="rgba(255,255,255,0.03)"/><circle cx="580" cy="180" r="0.7" fill="rgba(255,255,255,0.03)"/><circle cx="580" cy="230" r="0.7" fill="rgba(255,255,255,0.03)"/><circle cx="580" cy="280" r="0.7" fill="rgba(255,255,255,0.03)"/><circle cx="580" cy="330" r="0.7" fill="rgba(255,255,255,0.03)"/><circle cx="580" cy="380" r="0.7" fill="rgba(255,255,255,0.03)"/><circle cx="580" cy="430" r="0.7" fill="rgba(255,255,255,0.03)"/><circle cx="580" cy="480" r="0.7" fill="rgba(255,255,255,0.03)"/><circle cx="580" cy="530" r="0.7" fill="rgba(255,255,255,0.03)"/><circle cx="580" cy="580" r="0.7" fill="rgba(255,255,255,0.03)"/><circle cx="580" cy="630" r="0.7" fill="rgba(255,255,255,0.03)"/><circle cx="580" cy="680" r="0.7" fill="rgba(255,255,255,0.03)"/><circle cx="630" cy="30" r="0.7" fill="rgba(255,255,255,0.03)"/><circle cx="630" cy="80" r="0.7" fill="rgba(255,255,255,0.03)"/><circle cx="630" cy="130" r="0.7" fill="rgba(255,255,255,0.03)"/><circle cx="630" cy="180" r="0.7" fill="rgba(255,255,255,0.03)"/><circle cx="630" cy="230" r="0.7" fill="rgba(255,255,255,0.03)"/><circle cx="630" cy="280" r="0.7" fill="rgba(255,255,255,0.03)"/><circle cx="630" cy="330" r="0.7" fill="rgba(255,255,255,0.03)"/><circle cx="630" cy="380" r="0.7" fill="rgba(255,255,255,0.03)"/><circle cx="630" cy="430" r="0.7" fill="rgba(255,255,255,0.03)"/><circle cx="630" cy="480" r="0.7" fill="rgba(255,255,255,0.03)"/><circle cx="630" cy="530" r="0.7" fill="rgba(255,255,255,0.03)"/><circle cx="630" cy="580" r="0.7" fill="rgba(255,255,255,0.03)"/><circle cx="630" cy="630" r="0.7" fill="rgba(255,255,255,0.03)"/><circle cx="630" cy="680" r="0.7" fill="rgba(255,255,255,0.03)"/><circle cx="680" cy="30" r="0.7" fill="rgba(255,255,255,0.03)"/><circle cx="680" cy="80" r="0.7" fill="rgba(255,255,255,0.03)"/><circle cx="680" cy="130" r="0.7" fill="rgba(255,255,255,0.03)"/><circle cx="680" cy="180" r="0.7" fill="rgba(255,255,255,0.03)"/><circle cx="680" cy="230" r="0.7" fill="rgba(255,255,255,0.03)"/><circle cx="680" cy="280" r="0.7" fill="rgba(255,255,255,0.03)"/><circle cx="680" cy="330" r="0.7" fill="rgba(255,255,255,0.03)"/><circle cx="680" cy="380" r="0.7" fill="rgba(255,255,255,0.03)"/><circle cx="680" cy="430" r="0.7" fill="rgba(255,255,255,0.03)"/><circle cx="680" cy="480" r="0.7" fill="rgba(255,255,255,0.03)"/><circle cx="680" cy="530" r="0.7" fill="rgba(255,255,255,0.03)"/><circle cx="680" cy="580" r="0.7" fill="rgba(255,255,255,0.03)"/><circle cx="680" cy="630" r="0.7" fill="rgba(255,255,255,0.03)"/><circle cx="680" cy="680" r="0.7" fill="rgba(255,255,255,0.03)"/><circle cx="730" cy="30" r="0.7" fill="rgba(255,255,255,0.03)"/><circle cx="730" cy="80" r="0.7" fill="rgba(255,255,255,0.03)"/><circle cx="730" cy="130" r="0.7" fill="rgba(255,255,255,0.03)"/><circle cx="730" cy="180" r="0.7" fill="rgba(255,255,255,0.03)"/><circle cx="730" cy="230" r="0.7" fill="rgba(255,255,255,0.03)"/><circle cx="730" cy="280" r="0.7" fill="rgba(255,255,255,0.03)"/><circle cx="730" cy="330" r="0.7" fill="rgba(255,255,255,0.03)"/><circle cx="730" cy="380" r="0.7" fill="rgba(255,255,255,0.03)"/><circle cx="730" cy="430" r="0.7" fill="rgba(255,255,255,0.03)"/><circle cx="730" cy="480" r="0.7" fill="rgba(255,255,255,0.03)"/><circle cx="730" cy="530" r="0.7" fill="rgba(255,255,255,0.03)"/><circle cx="730" cy="580" r="0.7" fill="rgba(255,255,255,0.03)"/><circle cx="730" cy="630" r="0.7" fill="rgba(255,255,255,0.03)"/><circle cx="730" cy="680" r="0.7" fill="rgba(255,255,255,0.03)"/><circle cx="780" cy="30" r="0.7" fill="rgba(255,255,255,0.03)"/><circle cx="780" cy="80" r="0.7" fill="rgba(255,255,255,0.03)"/><circle cx="780" cy="130" r="0.7" fill="rgba(255,255,255,0.03)"/><circle cx="780" cy="180" r="0.7" fill="rgba(255,255,255,0.03)"/><circle cx="780" cy="230" r="0.7" fill="rgba(255,255,255,0.03)"/><circle cx="780" cy="280" r="0.7" fill="rgba(255,255,255,0.03)"/><circle cx="780" cy="330" r="0.7" fill="rgba(255,255,255,0.03)"/><circle cx="780" cy="380" r="0.7" fill="rgba(255,255,255,0.03)"/><circle cx="780" cy="430" r="0.7" fill="rgba(255,255,255,0.03)"/><circle cx="780" cy="480" r="0.7" fill="rgba(255,255,255,0.03)"/><circle cx="780" cy="530" r="0.7" fill="rgba(255,255,255,0.03)"/><circle cx="780" cy="580" r="0.7" fill="rgba(255,255,255,0.03)"/><circle cx="780" cy="630" r="0.7" fill="rgba(255,255,255,0.03)"/><circle cx="780" cy="680" r="0.7" fill="rgba(255,255,255,0.03)"/><circle cx="830" cy="30" r="0.7" fill="rgba(255,255,255,0.03)"/><circle cx="830" cy="80" r="0.7" fill="rgba(255,255,255,0.03)"/><circle cx="830" cy="130" r="0.7" fill="rgba(255,255,255,0.03)"/><circle cx="830" cy="180" r="0.7" fill="rgba(255,255,255,0.03)"/><circle cx="830" cy="230" r="0.7" fill="rgba(255,255,255,0.03)"/><circle cx="830" cy="280" r="0.7" fill="rgba(255,255,255,0.03)"/><circle cx="830" cy="330" r="0.7" fill="rgba(255,255,255,0.03)"/><circle cx="830" cy="380" r="0.7" fill="rgba(255,255,255,0.03)"/><circle cx="830" cy="430" r="0.7" fill="rgba(255,255,255,0.03)"/><circle cx="830" cy="480" r="0.7" fill="rgba(255,255,255,0.03)"/><circle cx="830" cy="530" r="0.7" fill="rgba(255,255,255,0.03)"/><circle cx="830" cy="580" r="0.7" fill="rgba(255,255,255,0.03)"/><circle cx="830" cy="630" r="0.7" fill="rgba(255,255,255,0.03)"/><circle cx="830" cy="680" r="0.7" fill="rgba(255,255,255,0.03)"/><circle cx="880" cy="30" r="0.7" fill="rgba(255,255,255,0.03)"/><circle cx="880" cy="80" r="0.7" fill="rgba(255,255,255,0.03)"/><circle cx="880" cy="130" r="0.7" fill="rgba(255,255,255,0.03)"/><circle cx="880" cy="180" r="0.7" fill="rgba(255,255,255,0.03)"/><circle cx="880" cy="230" r="0.7" fill="rgba(255,255,255,0.03)"/><circle cx="880" cy="280" r="0.7" fill="rgba(255,255,255,0.03)"/><circle cx="880" cy="330" r="0.7" fill="rgba(255,255,255,0.03)"/><circle cx="880" cy="380" r="0.7" fill="rgba(255,255,255,0.03)"/><circle cx="880" cy="430" r="0.7" fill="rgba(255,255,255,0.03)"/><circle cx="880" cy="480" r="0.7" fill="rgba(255,255,255,0.03)"/><circle cx="880" cy="530" r="0.7" fill="rgba(255,255,255,0.03)"/><circle cx="880" cy="580" r="0.7" fill="rgba(255,255,255,0.03)"/><circle cx="880" cy="630" r="0.7" fill="rgba(255,255,255,0.03)"/><circle cx="880" cy="680" r="0.7" fill="rgba(255,255,255,0.03)"/><circle cx="930" cy="30" r="0.7" fill="rgba(255,255,255,0.03)"/><circle cx="930" cy="80" r="0.7" fill="rgba(255,255,255,0.03)"/><circle cx="930" cy="130" r="0.7" fill="rgba(255,255,255,0.03)"/><circle cx="930" cy="180" r="0.7" fill="rgba(255,255,255,0.03)"/><circle cx="930" cy="230" r="0.7" fill="rgba(255,255,255,0.03)"/><circle cx="930" cy="280" r="0.7" fill="rgba(255,255,255,0.03)"/><circle cx="930" cy="330" r="0.7" fill="rgba(255,255,255,0.03)"/><circle cx="930" cy="380" r="0.7" fill="rgba(255,255,255,0.03)"/><circle cx="930" cy="430" r="0.7" fill="rgba(255,255,255,0.03)"/><circle cx="930" cy="480" r="0.7" fill="rgba(255,255,255,0.03)"/><circle cx="930" cy="530" r="0.7" fill="rgba(255,255,255,0.03)"/><circle cx="930" cy="580" r="0.7" fill="rgba(255,255,255,0.03)"/><circle cx="930" cy="630" r="0.7" fill="rgba(255,255,255,0.03)"/><circle cx="930" cy="680" r="0.7" fill="rgba(255,255,255,0.03)"/><circle cx="980" cy="30" r="0.7" fill="rgba(255,255,255,0.03)"/><circle cx="980" cy="80" r="0.7" fill="rgba(255,255,255,0.03)"/><circle cx="980" cy="130" r="0.7" fill="rgba(255,255,255,0.03)"/><circle cx="980" cy="180" r="0.7" fill="rgba(255,255,255,0.03)"/><circle cx="980" cy="230" r="0.7" fill="rgba(255,255,255,0.03)"/><circle cx="980" cy="280" r="0.7" fill="rgba(255,255,255,0.03)"/><circle cx="980" cy="330" r="0.7" fill="rgba(255,255,255,0.03)"/><circle cx="980" cy="380" r="0.7" fill="rgba(255,255,255,0.03)"/><circle cx="980" cy="430" r="0.7" fill="rgba(255,255,255,0.03)"/><circle cx="980" cy="480" r="0.7" fill="rgba(255,255,255,0.03)"/><circle cx="980" cy="530" r="0.7" fill="rgba(255,255,255,0.03)"/><circle cx="980" cy="580" r="0.7" fill="rgba(255,255,255,0.03)"/><circle cx="980" cy="630" r="0.7" fill="rgba(255,255,255,0.03)"/><circle cx="980" cy="680" r="0.7" fill="rgba(255,255,255,0.03)"/><circle cx="1030" cy="30" r="0.7" fill="rgba(255,255,255,0.03)"/><circle cx="1030" cy="80" r="0.7" fill="rgba(255,255,255,0.03)"/><circle cx="1030" cy="130" r="0.7" fill="rgba(255,255,255,0.03)"/><circle cx="1030" cy="180" r="0.7" fill="rgba(255,255,255,0.03)"/><circle cx="1030" cy="230" r="0.7" fill="rgba(255,255,255,0.03)"/><circle cx="1030" cy="280" r="0.7" fill="rgba(255,255,255,0.03)"/><circle cx="1030" cy="330" r="0.7" fill="rgba(255,255,255,0.03)"/><circle cx="1030" cy="380" r="0.7" fill="rgba(255,255,255,0.03)"/><circle cx="1030" cy="430" r="0.7" fill="rgba(255,255,255,0.03)"/><circle cx="1030" cy="480" r="0.7" fill="rgba(255,255,255,0.03)"/><circle cx="1030" cy="530" r="0.7" fill="rgba(255,255,255,0.03)"/><circle cx="1030" cy="580" r="0.7" fill="rgba(255,255,255,0.03)"/><circle cx="1030" cy="630" r="0.7" fill="rgba(255,255,255,0.03)"/><circle cx="1030" cy="680" r="0.7" fill="rgba(255,255,255,0.03)"/><circle cx="1080" cy="30" r="0.7" fill="rgba(255,255,255,0.03)"/><circle cx="1080" cy="80" r="0.7" fill="rgba(255,255,255,0.03)"/><circle cx="1080" cy="130" r="0.7" fill="rgba(255,255,255,0.03)"/><circle cx="1080" cy="180" r="0.7" fill="rgba(255,255,255,0.03)"/><circle cx="1080" cy="230" r="0.7" fill="rgba(255,255,255,0.03)"/><circle cx="1080" cy="280" r="0.7" fill="rgba(255,255,255,0.03)"/><circle cx="1080" cy="330" r="0.7" fill="rgba(255,255,255,0.03)"/><circle cx="1080" cy="380" r="0.7" fill="rgba(255,255,255,0.03)"/><circle cx="1080" cy="430" r="0.7" fill="rgba(255,255,255,0.03)"/><circle cx="1080" cy="480" r="0.7" fill="rgba(255,255,255,0.03)"/><circle cx="1080" cy="530" r="0.7" fill="rgba(255,255,255,0.03)"/><circle cx="1080" cy="580" r="0.7" fill="rgba(255,255,255,0.03)"/><circle cx="1080" cy="630" r="0.7" fill="rgba(255,255,255,0.03)"/><circle cx="1080" cy="680" r="0.7" fill="rgba(255,255,255,0.03)"/><circle cx="1130" cy="30" r="0.7" fill="rgba(255,255,255,0.03)"/><circle cx="1130" cy="80" r="0.7" fill="rgba(255,255,255,0.03)"/><circle cx="1130" cy="130" r="0.7" fill="rgba(255,255,255,0.03)"/><circle cx="1130" cy="180" r="0.7" fill="rgba(255,255,255,0.03)"/><circle cx="1130" cy="230" r="0.7" fill="rgba(255,255,255,0.03)"/><circle cx="1130" cy="280" r="0.7" fill="rgba(255,255,255,0.03)"/><circle cx="1130" cy="330" r="0.7" fill="rgba(255,255,255,0.03)"/><circle cx="1130" cy="380" r="0.7" fill="rgba(255,255,255,0.03)"/><circle cx="1130" cy="430" r="0.7" fill="rgba(255,255,255,0.03)"/><circle cx="1130" cy="480" r="0.7" fill="rgba(255,255,255,0.03)"/><circle cx="1130" cy="530" r="0.7" fill="rgba(255,255,255,0.03)"/><circle cx="1130" cy="580" r="0.7" fill="rgba(255,255,255,0.03)"/><circle cx="1130" cy="630" r="0.7" fill="rgba(255,255,255,0.03)"/><circle cx="1130" cy="680" r="0.7" fill="rgba(255,255,255,0.03)"/><circle cx="1180" cy="30" r="0.7" fill="rgba(255,255,255,0.03)"/><circle cx="1180" cy="80" r="0.7" fill="rgba(255,255,255,0.03)"/><circle cx="1180" cy="130" r="0.7" fill="rgba(255,255,255,0.03)"/><circle cx="1180" cy="180" r="0.7" fill="rgba(255,255,255,0.03)"/><circle cx="1180" cy="230" r="0.7" fill="rgba(255,255,255,0.03)"/><circle cx="1180" cy="280" r="0.7" fill="rgba(255,255,255,0.03)"/><circle cx="1180" cy="330" r="0.7" fill="rgba(255,255,255,0.03)"/><circle cx="1180" cy="380" r="0.7" fill="rgba(255,255,255,0.03)"/><circle cx="1180" cy="430" r="0.7" fill="rgba(255,255,255,0.03)"/><circle cx="1180" cy="480" r="0.7" fill="rgba(255,255,255,0.03)"/><circle cx="1180" cy="530" r="0.7" fill="rgba(255,255,255,0.03)"/><circle cx="1180" cy="580" r="0.7" fill="rgba(255,255,255,0.03)"/><circle cx="1180" cy="630" r="0.7" fill="rgba(255,255,255,0.03)"/><circle cx="1180" cy="680" r="0.7" fill="rgba(255,255,255,0.03)"/>
  
  <text x="600" y="45" text-anchor="middle" fill="#f5f5f7" font-size="20" font-weight="600" letter-spacing="-0.5">Script Autopsy — A Deliberately Weak Draft</text>
  <text x="600" y="67" text-anchor="middle" fill="#6e6e73" font-size="11">Diagnose the symptom · Name the cause · Suggest a repair</text>

  <!-- Weak draft -->
  <rect x="60" y="95" width="520" height="260" rx="14" fill="#1a1a1c" stroke="rgba(255,60,60,0.3)" stroke-width="1.5"/>
  <text x="80" y="125" fill="rgba(255,60,60,0.6)" font-size="9" font-weight="600" letter-spacing="1">WEAK DRAFT</text>
  
    <text x="80" y="155" fill="#86868b" font-size="11" font-style="italic">"Welcome back! In today's fast-paced world..."</text>
  
    <text x="80" y="185" fill="#86868b" font-size="11" font-style="italic">"Storytelling is more important than ever."</text>
  
    <text x="80" y="215" fill="#86868b" font-size="11" font-style="italic">"We tried a few tools and got amazing results."</text>
  
    <text x="80" y="245" fill="#86868b" font-size="11" font-style="italic">"Let's talk about the history of AI."</text>
  
    <text x="80" y="275" fill="#86868b" font-size="11" font-style="italic">"You won't believe what happened next."</text>
  
    <text x="80" y="305" fill="#86868b" font-size="11" font-style="italic">"In conclusion, subscribe for the secret method."</text>
  

  <!-- Diagnosis arrows -->
  
    <line x1="590" y1="120" x2="630" y2="120" stroke="#0066cc" stroke-width="1" marker-end="url(#arrow-blue)"/>
    <text x="640" y="115" fill="rgba(255,60,60,0.5)" font-size="8" letter-spacing="0.5">PROBLEM</text>
    <text x="640" y="129" fill="#d2d2d7" font-size="10">Delays viewer question</text>
    
    <line x1="590" y1="160" x2="630" y2="160" stroke="#0066cc" stroke-width="1" marker-end="url(#arrow-blue)"/>
    <text x="640" y="155" fill="rgba(255,60,60,0.5)" font-size="8" letter-spacing="0.5">PROBLEM</text>
    <text x="640" y="169" fill="#d2d2d7" font-size="10">Broad claim, no proof</text>
    
    <line x1="590" y1="200" x2="630" y2="200" stroke="#0066cc" stroke-width="1" marker-end="url(#arrow-blue)"/>
    <text x="640" y="195" fill="rgba(255,60,60,0.5)" font-size="8" letter-spacing="0.5">PROBLEM</text>
    <text x="640" y="209" fill="#d2d2d7" font-size="10">Hides who, what, why</text>
    
    <line x1="590" y1="240" x2="630" y2="240" stroke="#0066cc" stroke-width="1" marker-end="url(#arrow-blue)"/>
    <text x="640" y="235" fill="rgba(255,60,60,0.5)" font-size="8" letter-spacing="0.5">PROBLEM</text>
    <text x="640" y="249" fill="#d2d2d7" font-size="10">Unrelated tangent</text>
    
    <line x1="590" y1="280" x2="630" y2="280" stroke="#0066cc" stroke-width="1" marker-end="url(#arrow-blue)"/>
    <text x="640" y="275" fill="rgba(255,60,60,0.5)" font-size="8" letter-spacing="0.5">PROBLEM</text>
    <text x="640" y="289" fill="#d2d2d7" font-size="10">Fake suspense</text>
    
    <line x1="590" y1="320" x2="630" y2="320" stroke="#0066cc" stroke-width="1" marker-end="url(#arrow-blue)"/>
    <text x="640" y="315" fill="rgba(255,60,60,0.5)" font-size="8" letter-spacing="0.5">PROBLEM</text>
    <text x="640" y="329" fill="#d2d2d7" font-size="10">CTA before value</text>
    

  <!-- Effects -->
  
    <text x="870" y="120" fill="#86868b" font-size="10">→ Viewer lost</text>
  
    <text x="870" y="160" fill="#86868b" font-size="10">→ Nothing to verify</text>
  
    <text x="870" y="200" fill="#86868b" font-size="10">→ No credibility</text>
  
    <text x="870" y="240" fill="#86868b" font-size="10">→ Promise broken</text>
  
    <text x="870" y="280" fill="#86868b" font-size="10">→ Distrust built</text>
  
    <text x="870" y="320" fill="#86868b" font-size="10">→ Premature ask</text>
  

  <!-- Repair -->
  <rect x="60" y="400" width="1080" height="180" rx="14" fill="rgba(0,102,204,0.04)" stroke="rgba(0,102,204,0.2)" stroke-width="1"/>
  <text x="600" y="430" text-anchor="middle" fill="#0066cc" font-size="12" font-weight="600" letter-spacing="1">REPAIR PATTERN: Problem → Viewer Effect → Fix → Test</text>
  
    <rect x="90" y="445" width="400" height="22" rx="6" fill="rgba(255,255,255,0.02)"/>
    <text x="110" y="461" fill="#d2d2d7" font-size="11">1. Name the specific failure (not "make it stronger")</text>
  
    <rect x="90" y="475" width="400" height="22" rx="6" fill="rgba(255,255,255,0.02)"/>
    <text x="110" y="491" fill="#d2d2d7" font-size="11">2. Explain why it matters to the viewer</text>
  
    <rect x="90" y="505" width="400" height="22" rx="6" fill="rgba(255,255,255,0.02)"/>
    <text x="110" y="521" fill="#d2d2d7" font-size="11">3. Suggest a repair that respects the facts</text>
  
    <rect x="90" y="535" width="400" height="22" rx="6" fill="rgba(255,255,255,0.02)"/>
    <text x="110" y="551" fill="#d2d2d7" font-size="11">4. Define how to test if the fix worked</text>
  

  <text x="600" y="670" text-anchor="middle" fill="#4e4e53" font-size="9">The Scriptwriter's Atlas · Phase 10</text>

</svg>