<?xml version="1.0" encoding="UTF-8"?>
<svg xmlns="http://www.w3.org/2000/svg" viewBox="0 0 1200 650" width="1200" height="650">
  <defs>
    <style>text { font-family: 'Inter', 'SF Pro Text', system-ui, -apple-system, sans-serif; }</style>
    <marker id="arrow-blue" markerWidth="8" markerHeight="8" refX="7" refY="4" orient="auto">
      <path d="M 0 0 L 8 4 L 0 8 Z" fill="#0066cc"/>
    </marker>
  </defs>
  <rect width="1200" height="650" fill="#0a0a0c" rx="20"/>
  <circle cx="30" cy="30" r="0.7" fill="rgba(255,255,255,0.03)"/><circle cx="30" cy="80" r="0.7" fill="rgba(255,255,255,0.03)"/><circle cx="30" cy="130" r="0.7" fill="rgba(255,255,255,0.03)"/><circle cx="30" cy="180" r="0.7" fill="rgba(255,255,255,0.03)"/><circle cx="30" cy="230" r="0.7" fill="rgba(255,255,255,0.03)"/><circle cx="30" cy="280" r="0.7" fill="rgba(255,255,255,0.03)"/><circle cx="30" cy="330" r="0.7" fill="rgba(255,255,255,0.03)"/><circle cx="30" cy="380" r="0.7" fill="rgba(255,255,255,0.03)"/><circle cx="30" cy="430" r="0.7" fill="rgba(255,255,255,0.03)"/><circle cx="30" cy="480" r="0.7" fill="rgba(255,255,255,0.03)"/><circle cx="30" cy="530" r="0.7" fill="rgba(255,255,255,0.03)"/><circle cx="30" cy="580" r="0.7" fill="rgba(255,255,255,0.03)"/><circle cx="30" cy="630" r="0.7" fill="rgba(255,255,255,0.03)"/><circle cx="80" cy="30" r="0.7" fill="rgba(255,255,255,0.03)"/><circle cx="80" cy="80" r="0.7" fill="rgba(255,255,255,0.03)"/><circle cx="80" cy="130" r="0.7" fill="rgba(255,255,255,0.03)"/><circle cx="80" cy="180" r="0.7" fill="rgba(255,255,255,0.03)"/><circle cx="80" cy="230" r="0.7" fill="rgba(255,255,255,0.03)"/><circle cx="80" cy="280" r="0.7" fill="rgba(255,255,255,0.03)"/><circle cx="80" cy="330" r="0.7" fill="rgba(255,255,255,0.03)"/><circle cx="80" cy="380" r="0.7" fill="rgba(255,255,255,0.03)"/><circle cx="80" cy="430" r="0.7" fill="rgba(255,255,255,0.03)"/><circle cx="80" cy="480" r="0.7" fill="rgba(255,255,255,0.03)"/><circle cx="80" cy="530" r="0.7" fill="rgba(255,255,255,0.03)"/><circle cx="80" cy="580" r="0.7" fill="rgba(255,255,255,0.03)"/><circle cx="80" cy="630" r="0.7" fill="rgba(255,255,255,0.03)"/><circle cx="130" cy="30" r="0.7" fill="rgba(255,255,255,0.03)"/><circle cx="130" cy="80" r="0.7" fill="rgba(255,255,255,0.03)"/><circle cx="130" cy="130" r="0.7" fill="rgba(255,255,255,0.03)"/><circle cx="130" cy="180" r="0.7" fill="rgba(255,255,255,0.03)"/><circle cx="130" cy="230" r="0.7" fill="rgba(255,255,255,0.03)"/><circle cx="130" cy="280" r="0.7" fill="rgba(255,255,255,0.03)"/><circle cx="130" cy="330" r="0.7" fill="rgba(255,255,255,0.03)"/><circle cx="130" cy="380" r="0.7" fill="rgba(255,255,255,0.03)"/><circle cx="130" cy="430" r="0.7" fill="rgba(255,255,255,0.03)"/><circle cx="130" cy="480" r="0.7" fill="rgba(255,255,255,0.03)"/><circle cx="130" cy="530" r="0.7" fill="rgba(255,255,255,0.03)"/><circle cx="130" cy="580" r="0.7" fill="rgba(255,255,255,0.03)"/><circle cx="130" cy="630" r="0.7" fill="rgba(255,255,255,0.03)"/><circle cx="180" cy="30" r="0.7" fill="rgba(255,255,255,0.03)"/><circle cx="180" cy="80" r="0.7" fill="rgba(255,255,255,0.03)"/><circle cx="180" cy="130" r="0.7" fill="rgba(255,255,255,0.03)"/><circle cx="180" cy="180" r="0.7" fill="rgba(255,255,255,0.03)"/><circle cx="180" cy="230" r="0.7" fill="rgba(255,255,255,0.03)"/><circle cx="180" cy="280" r="0.7" fill="rgba(255,255,255,0.03)"/><circle cx="180" cy="330" r="0.7" fill="rgba(255,255,255,0.03)"/><circle cx="180" cy="380" r="0.7" fill="rgba(255,255,255,0.03)"/><circle cx="180" cy="430" r="0.7" fill="rgba(255,255,255,0.03)"/><circle cx="180" cy="480" r="0.7" fill="rgba(255,255,255,0.03)"/><circle cx="180" cy="530" r="0.7" fill="rgba(255,255,255,0.03)"/><circle cx="180" cy="580" r="0.7" fill="rgba(255,255,255,0.03)"/><circle cx="180" cy="630" r="0.7" fill="rgba(255,255,255,0.03)"/><circle cx="230" cy="30" r="0.7" fill="rgba(255,255,255,0.03)"/><circle cx="230" cy="80" r="0.7" fill="rgba(255,255,255,0.03)"/><circle cx="230" cy="130" r="0.7" fill="rgba(255,255,255,0.03)"/><circle cx="230" cy="180" r="0.7" fill="rgba(255,255,255,0.03)"/><circle cx="230" cy="230" r="0.7" fill="rgba(255,255,255,0.03)"/><circle cx="230" cy="280" r="0.7" fill="rgba(255,255,255,0.03)"/><circle cx="230" cy="330" r="0.7" fill="rgba(255,255,255,0.03)"/><circle cx="230" cy="380" r="0.7" fill="rgba(255,255,255,0.03)"/><circle cx="230" cy="430" r="0.7" fill="rgba(255,255,255,0.03)"/><circle cx="230" cy="480" r="0.7" fill="rgba(255,255,255,0.03)"/><circle cx="230" cy="530" r="0.7" fill="rgba(255,255,255,0.03)"/><circle cx="230" cy="580" r="0.7" fill="rgba(255,255,255,0.03)"/><circle cx="230" cy="630" r="0.7" fill="rgba(255,255,255,0.03)"/><circle cx="280" cy="30" r="0.7" fill="rgba(255,255,255,0.03)"/><circle cx="280" cy="80" r="0.7" fill="rgba(255,255,255,0.03)"/><circle cx="280" cy="130" r="0.7" fill="rgba(255,255,255,0.03)"/><circle cx="280" cy="180" r="0.7" fill="rgba(255,255,255,0.03)"/><circle cx="280" cy="230" r="0.7" fill="rgba(255,255,255,0.03)"/><circle cx="280" cy="280" r="0.7" fill="rgba(255,255,255,0.03)"/><circle cx="280" cy="330" r="0.7" fill="rgba(255,255,255,0.03)"/><circle cx="280" cy="380" r="0.7" fill="rgba(255,255,255,0.03)"/><circle cx="280" cy="430" r="0.7" fill="rgba(255,255,255,0.03)"/><circle cx="280" cy="480" r="0.7" fill="rgba(255,255,255,0.03)"/><circle cx="280" cy="530" r="0.7" fill="rgba(255,255,255,0.03)"/><circle cx="280" cy="580" r="0.7" fill="rgba(255,255,255,0.03)"/><circle cx="280" cy="630" r="0.7" fill="rgba(255,255,255,0.03)"/><circle cx="330" cy="30" r="0.7" fill="rgba(255,255,255,0.03)"/><circle cx="330" cy="80" r="0.7" fill="rgba(255,255,255,0.03)"/><circle cx="330" cy="130" r="0.7" fill="rgba(255,255,255,0.03)"/><circle cx="330" cy="180" r="0.7" fill="rgba(255,255,255,0.03)"/><circle cx="330" cy="230" r="0.7" fill="rgba(255,255,255,0.03)"/><circle cx="330" cy="280" r="0.7" fill="rgba(255,255,255,0.03)"/><circle cx="330" cy="330" r="0.7" fill="rgba(255,255,255,0.03)"/><circle cx="330" cy="380" r="0.7" fill="rgba(255,255,255,0.03)"/><circle cx="330" cy="430" r="0.7" fill="rgba(255,255,255,0.03)"/><circle cx="330" cy="480" r="0.7" fill="rgba(255,255,255,0.03)"/><circle cx="330" cy="530" r="0.7" fill="rgba(255,255,255,0.03)"/><circle cx="330" cy="580" r="0.7" fill="rgba(255,255,255,0.03)"/><circle cx="330" cy="630" r="0.7" fill="rgba(255,255,255,0.03)"/><circle cx="380" cy="30" r="0.7" fill="rgba(255,255,255,0.03)"/><circle cx="380" cy="80" r="0.7" fill="rgba(255,255,255,0.03)"/><circle cx="380" cy="130" r="0.7" fill="rgba(255,255,255,0.03)"/><circle cx="380" cy="180" r="0.7" fill="rgba(255,255,255,0.03)"/><circle cx="380" cy="230" r="0.7" fill="rgba(255,255,255,0.03)"/><circle cx="380" cy="280" r="0.7" fill="rgba(255,255,255,0.03)"/><circle cx="380" cy="330" r="0.7" fill="rgba(255,255,255,0.03)"/><circle cx="380" cy="380" r="0.7" fill="rgba(255,255,255,0.03)"/><circle cx="380" cy="430" r="0.7" fill="rgba(255,255,255,0.03)"/><circle cx="380" cy="480" r="0.7" fill="rgba(255,255,255,0.03)"/><circle cx="380" cy="530" r="0.7" fill="rgba(255,255,255,0.03)"/><circle cx="380" cy="580" r="0.7" fill="rgba(255,255,255,0.03)"/><circle cx="380" cy="630" r="0.7" fill="rgba(255,255,255,0.03)"/><circle cx="430" cy="30" r="0.7" fill="rgba(255,255,255,0.03)"/><circle cx="430" cy="80" r="0.7" fill="rgba(255,255,255,0.03)"/><circle cx="430" cy="130" r="0.7" fill="rgba(255,255,255,0.03)"/><circle cx="430" cy="180" r="0.7" fill="rgba(255,255,255,0.03)"/><circle cx="430" cy="230" r="0.7" fill="rgba(255,255,255,0.03)"/><circle cx="430" cy="280" r="0.7" fill="rgba(255,255,255,0.03)"/><circle cx="430" cy="330" r="0.7" fill="rgba(255,255,255,0.03)"/><circle cx="430" cy="380" r="0.7" fill="rgba(255,255,255,0.03)"/><circle cx="430" cy="430" r="0.7" fill="rgba(255,255,255,0.03)"/><circle cx="430" cy="480" r="0.7" fill="rgba(255,255,255,0.03)"/><circle cx="430" cy="530" r="0.7" fill="rgba(255,255,255,0.03)"/><circle cx="430" cy="580" r="0.7" fill="rgba(255,255,255,0.03)"/><circle cx="430" cy="630" r="0.7" fill="rgba(255,255,255,0.03)"/><circle cx="480" cy="30" r="0.7" fill="rgba(255,255,255,0.03)"/><circle cx="480" cy="80" r="0.7" fill="rgba(255,255,255,0.03)"/><circle cx="480" cy="130" r="0.7" fill="rgba(255,255,255,0.03)"/><circle cx="480" cy="180" r="0.7" fill="rgba(255,255,255,0.03)"/><circle cx="480" cy="230" r="0.7" fill="rgba(255,255,255,0.03)"/><circle cx="480" cy="280" r="0.7" fill="rgba(255,255,255,0.03)"/><circle cx="480" cy="330" r="0.7" fill="rgba(255,255,255,0.03)"/><circle cx="480" cy="380" r="0.7" fill="rgba(255,255,255,0.03)"/><circle cx="480" cy="430" r="0.7" fill="rgba(255,255,255,0.03)"/><circle cx="480" cy="480" r="0.7" fill="rgba(255,255,255,0.03)"/><circle cx="480" cy="530" r="0.7" fill="rgba(255,255,255,0.03)"/><circle cx="480" cy="580" r="0.7" fill="rgba(255,255,255,0.03)"/><circle cx="480" cy="630" r="0.7" fill="rgba(255,255,255,0.03)"/><circle cx="530" cy="30" r="0.7" fill="rgba(255,255,255,0.03)"/><circle cx="530" cy="80" r="0.7" fill="rgba(255,255,255,0.03)"/><circle cx="530" cy="130" r="0.7" fill="rgba(255,255,255,0.03)"/><circle cx="530" cy="180" r="0.7" fill="rgba(255,255,255,0.03)"/><circle cx="530" cy="230" r="0.7" fill="rgba(255,255,255,0.03)"/><circle cx="530" cy="280" r="0.7" fill="rgba(255,255,255,0.03)"/><circle cx="530" cy="330" r="0.7" fill="rgba(255,255,255,0.03)"/><circle cx="530" cy="380" r="0.7" fill="rgba(255,255,255,0.03)"/><circle cx="530" cy="430" r="0.7" fill="rgba(255,255,255,0.03)"/><circle cx="530" cy="480" r="0.7" fill="rgba(255,255,255,0.03)"/><circle cx="530" cy="530" r="0.7" fill="rgba(255,255,255,0.03)"/><circle cx="530" cy="580" r="0.7" fill="rgba(255,255,255,0.03)"/><circle cx="530" cy="630" r="0.7" fill="rgba(255,255,255,0.03)"/><circle cx="580" cy="30" r="0.7" fill="rgba(255,255,255,0.03)"/><circle cx="580" cy="80" r="0.7" fill="rgba(255,255,255,0.03)"/><circle cx="580" cy="130" r="0.7" fill="rgba(255,255,255,0.03)"/><circle cx="580" cy="180" r="0.7" fill="rgba(255,255,255,0.03)"/><circle cx="580" cy="230" r="0.7" fill="rgba(255,255,255,0.03)"/><circle cx="580" cy="280" r="0.7" fill="rgba(255,255,255,0.03)"/><circle cx="580" cy="330" r="0.7" fill="rgba(255,255,255,0.03)"/><circle cx="580" cy="380" r="0.7" fill="rgba(255,255,255,0.03)"/><circle cx="580" cy="430" r="0.7" fill="rgba(255,255,255,0.03)"/><circle cx="580" cy="480" r="0.7" fill="rgba(255,255,255,0.03)"/><circle cx="580" cy="530" r="0.7" fill="rgba(255,255,255,0.03)"/><circle cx="580" cy="580" r="0.7" fill="rgba(255,255,255,0.03)"/><circle cx="580" cy="630" r="0.7" fill="rgba(255,255,255,0.03)"/><circle cx="630" cy="30" r="0.7" fill="rgba(255,255,255,0.03)"/><circle cx="630" cy="80" r="0.7" fill="rgba(255,255,255,0.03)"/><circle cx="630" cy="130" r="0.7" fill="rgba(255,255,255,0.03)"/><circle cx="630" cy="180" r="0.7" fill="rgba(255,255,255,0.03)"/><circle cx="630" cy="230" r="0.7" fill="rgba(255,255,255,0.03)"/><circle cx="630" cy="280" r="0.7" fill="rgba(255,255,255,0.03)"/><circle cx="630" cy="330" r="0.7" fill="rgba(255,255,255,0.03)"/><circle cx="630" cy="380" r="0.7" fill="rgba(255,255,255,0.03)"/><circle cx="630" cy="430" r="0.7" fill="rgba(255,255,255,0.03)"/><circle cx="630" cy="480" r="0.7" fill="rgba(255,255,255,0.03)"/><circle cx="630" cy="530" r="0.7" fill="rgba(255,255,255,0.03)"/><circle cx="630" cy="580" r="0.7" fill="rgba(255,255,255,0.03)"/><circle cx="630" cy="630" r="0.7" fill="rgba(255,255,255,0.03)"/><circle cx="680" cy="30" r="0.7" fill="rgba(255,255,255,0.03)"/><circle cx="680" cy="80" r="0.7" fill="rgba(255,255,255,0.03)"/><circle cx="680" cy="130" r="0.7" fill="rgba(255,255,255,0.03)"/><circle cx="680" cy="180" r="0.7" fill="rgba(255,255,255,0.03)"/><circle cx="680" cy="230" r="0.7" fill="rgba(255,255,255,0.03)"/><circle cx="680" cy="280" r="0.7" fill="rgba(255,255,255,0.03)"/><circle cx="680" cy="330" r="0.7" fill="rgba(255,255,255,0.03)"/><circle cx="680" cy="380" r="0.7" fill="rgba(255,255,255,0.03)"/><circle cx="680" cy="430" r="0.7" fill="rgba(255,255,255,0.03)"/><circle cx="680" cy="480" r="0.7" fill="rgba(255,255,255,0.03)"/><circle cx="680" cy="530" r="0.7" fill="rgba(255,255,255,0.03)"/><circle cx="680" cy="580" r="0.7" fill="rgba(255,255,255,0.03)"/><circle cx="680" cy="630" r="0.7" fill="rgba(255,255,255,0.03)"/><circle cx="730" cy="30" r="0.7" fill="rgba(255,255,255,0.03)"/><circle cx="730" cy="80" r="0.7" fill="rgba(255,255,255,0.03)"/><circle cx="730" cy="130" r="0.7" fill="rgba(255,255,255,0.03)"/><circle cx="730" cy="180" r="0.7" fill="rgba(255,255,255,0.03)"/><circle cx="730" cy="230" r="0.7" fill="rgba(255,255,255,0.03)"/><circle cx="730" cy="280" r="0.7" fill="rgba(255,255,255,0.03)"/><circle cx="730" cy="330" r="0.7" fill="rgba(255,255,255,0.03)"/><circle cx="730" cy="380" r="0.7" fill="rgba(255,255,255,0.03)"/><circle cx="730" cy="430" r="0.7" fill="rgba(255,255,255,0.03)"/><circle cx="730" cy="480" r="0.7" fill="rgba(255,255,255,0.03)"/><circle cx="730" cy="530" r="0.7" fill="rgba(255,255,255,0.03)"/><circle cx="730" cy="580" r="0.7" fill="rgba(255,255,255,0.03)"/><circle cx="730" cy="630" r="0.7" fill="rgba(255,255,255,0.03)"/><circle cx="780" cy="30" r="0.7" fill="rgba(255,255,255,0.03)"/><circle cx="780" cy="80" r="0.7" fill="rgba(255,255,255,0.03)"/><circle cx="780" cy="130" r="0.7" fill="rgba(255,255,255,0.03)"/><circle cx="780" cy="180" r="0.7" fill="rgba(255,255,255,0.03)"/><circle cx="780" cy="230" r="0.7" fill="rgba(255,255,255,0.03)"/><circle cx="780" cy="280" r="0.7" fill="rgba(255,255,255,0.03)"/><circle cx="780" cy="330" r="0.7" fill="rgba(255,255,255,0.03)"/><circle cx="780" cy="380" r="0.7" fill="rgba(255,255,255,0.03)"/><circle cx="780" cy="430" r="0.7" fill="rgba(255,255,255,0.03)"/><circle cx="780" cy="480" r="0.7" fill="rgba(255,255,255,0.03)"/><circle cx="780" cy="530" r="0.7" fill="rgba(255,255,255,0.03)"/><circle cx="780" cy="580" r="0.7" fill="rgba(255,255,255,0.03)"/><circle cx="780" cy="630" r="0.7" fill="rgba(255,255,255,0.03)"/><circle cx="830" cy="30" r="0.7" fill="rgba(255,255,255,0.03)"/><circle cx="830" cy="80" r="0.7" fill="rgba(255,255,255,0.03)"/><circle cx="830" cy="130" r="0.7" fill="rgba(255,255,255,0.03)"/><circle cx="830" cy="180" r="0.7" fill="rgba(255,255,255,0.03)"/><circle cx="830" cy="230" r="0.7" fill="rgba(255,255,255,0.03)"/><circle cx="830" cy="280" r="0.7" fill="rgba(255,255,255,0.03)"/><circle cx="830" cy="330" r="0.7" fill="rgba(255,255,255,0.03)"/><circle cx="830" cy="380" r="0.7" fill="rgba(255,255,255,0.03)"/><circle cx="830" cy="430" r="0.7" fill="rgba(255,255,255,0.03)"/><circle cx="830" cy="480" r="0.7" fill="rgba(255,255,255,0.03)"/><circle cx="830" cy="530" r="0.7" fill="rgba(255,255,255,0.03)"/><circle cx="830" cy="580" r="0.7" fill="rgba(255,255,255,0.03)"/><circle cx="830" cy="630" r="0.7" fill="rgba(255,255,255,0.03)"/><circle cx="880" cy="30" r="0.7" fill="rgba(255,255,255,0.03)"/><circle cx="880" cy="80" r="0.7" fill="rgba(255,255,255,0.03)"/><circle cx="880" cy="130" r="0.7" fill="rgba(255,255,255,0.03)"/><circle cx="880" cy="180" r="0.7" fill="rgba(255,255,255,0.03)"/><circle cx="880" cy="230" r="0.7" fill="rgba(255,255,255,0.03)"/><circle cx="880" cy="280" r="0.7" fill="rgba(255,255,255,0.03)"/><circle cx="880" cy="330" r="0.7" fill="rgba(255,255,255,0.03)"/><circle cx="880" cy="380" r="0.7" fill="rgba(255,255,255,0.03)"/><circle cx="880" cy="430" r="0.7" fill="rgba(255,255,255,0.03)"/><circle cx="880" cy="480" r="0.7" fill="rgba(255,255,255,0.03)"/><circle cx="880" cy="530" r="0.7" fill="rgba(255,255,255,0.03)"/><circle cx="880" cy="580" r="0.7" fill="rgba(255,255,255,0.03)"/><circle cx="880" cy="630" r="0.7" fill="rgba(255,255,255,0.03)"/><circle cx="930" cy="30" r="0.7" fill="rgba(255,255,255,0.03)"/><circle cx="930" cy="80" r="0.7" fill="rgba(255,255,255,0.03)"/><circle cx="930" cy="130" r="0.7" fill="rgba(255,255,255,0.03)"/><circle cx="930" cy="180" r="0.7" fill="rgba(255,255,255,0.03)"/><circle cx="930" cy="230" r="0.7" fill="rgba(255,255,255,0.03)"/><circle cx="930" cy="280" r="0.7" fill="rgba(255,255,255,0.03)"/><circle cx="930" cy="330" r="0.7" fill="rgba(255,255,255,0.03)"/><circle cx="930" cy="380" r="0.7" fill="rgba(255,255,255,0.03)"/><circle cx="930" cy="430" r="0.7" fill="rgba(255,255,255,0.03)"/><circle cx="930" cy="480" r="0.7" fill="rgba(255,255,255,0.03)"/><circle cx="930" cy="530" r="0.7" fill="rgba(255,255,255,0.03)"/><circle cx="930" cy="580" r="0.7" fill="rgba(255,255,255,0.03)"/><circle cx="930" cy="630" r="0.7" fill="rgba(255,255,255,0.03)"/><circle cx="980" cy="30" r="0.7" fill="rgba(255,255,255,0.03)"/><circle cx="980" cy="80" r="0.7" fill="rgba(255,255,255,0.03)"/><circle cx="980" cy="130" r="0.7" fill="rgba(255,255,255,0.03)"/><circle cx="980" cy="180" r="0.7" fill="rgba(255,255,255,0.03)"/><circle cx="980" cy="230" r="0.7" fill="rgba(255,255,255,0.03)"/><circle cx="980" cy="280" r="0.7" fill="rgba(255,255,255,0.03)"/><circle cx="980" cy="330" r="0.7" fill="rgba(255,255,255,0.03)"/><circle cx="980" cy="380" r="0.7" fill="rgba(255,255,255,0.03)"/><circle cx="980" cy="430" r="0.7" fill="rgba(255,255,255,0.03)"/><circle cx="980" cy="480" r="0.7" fill="rgba(255,255,255,0.03)"/><circle cx="980" cy="530" r="0.7" fill="rgba(255,255,255,0.03)"/><circle cx="980" cy="580" r="0.7" fill="rgba(255,255,255,0.03)"/><circle cx="980" cy="630" r="0.7" fill="rgba(255,255,255,0.03)"/><circle cx="1030" cy="30" r="0.7" fill="rgba(255,255,255,0.03)"/><circle cx="1030" cy="80" r="0.7" fill="rgba(255,255,255,0.03)"/><circle cx="1030" cy="130" r="0.7" fill="rgba(255,255,255,0.03)"/><circle cx="1030" cy="180" r="0.7" fill="rgba(255,255,255,0.03)"/><circle cx="1030" cy="230" r="0.7" fill="rgba(255,255,255,0.03)"/><circle cx="1030" cy="280" r="0.7" fill="rgba(255,255,255,0.03)"/><circle cx="1030" cy="330" r="0.7" fill="rgba(255,255,255,0.03)"/><circle cx="1030" cy="380" r="0.7" fill="rgba(255,255,255,0.03)"/><circle cx="1030" cy="430" r="0.7" fill="rgba(255,255,255,0.03)"/><circle cx="1030" cy="480" r="0.7" fill="rgba(255,255,255,0.03)"/><circle cx="1030" cy="530" r="0.7" fill="rgba(255,255,255,0.03)"/><circle cx="1030" cy="580" r="0.7" fill="rgba(255,255,255,0.03)"/><circle cx="1030" cy="630" r="0.7" fill="rgba(255,255,255,0.03)"/><circle cx="1080" cy="30" r="0.7" fill="rgba(255,255,255,0.03)"/><circle cx="1080" cy="80" r="0.7" fill="rgba(255,255,255,0.03)"/><circle cx="1080" cy="130" r="0.7" fill="rgba(255,255,255,0.03)"/><circle cx="1080" cy="180" r="0.7" fill="rgba(255,255,255,0.03)"/><circle cx="1080" cy="230" r="0.7" fill="rgba(255,255,255,0.03)"/><circle cx="1080" cy="280" r="0.7" fill="rgba(255,255,255,0.03)"/><circle cx="1080" cy="330" r="0.7" fill="rgba(255,255,255,0.03)"/><circle cx="1080" cy="380" r="0.7" fill="rgba(255,255,255,0.03)"/><circle cx="1080" cy="430" r="0.7" fill="rgba(255,255,255,0.03)"/><circle cx="1080" cy="480" r="0.7" fill="rgba(255,255,255,0.03)"/><circle cx="1080" cy="530" r="0.7" fill="rgba(255,255,255,0.03)"/><circle cx="1080" cy="580" r="0.7" fill="rgba(255,255,255,0.03)"/><circle cx="1080" cy="630" r="0.7" fill="rgba(255,255,255,0.03)"/><circle cx="1130" cy="30" r="0.7" fill="rgba(255,255,255,0.03)"/><circle cx="1130" cy="80" r="0.7" fill="rgba(255,255,255,0.03)"/><circle cx="1130" cy="130" r="0.7" fill="rgba(255,255,255,0.03)"/><circle cx="1130" cy="180" r="0.7" fill="rgba(255,255,255,0.03)"/><circle cx="1130" cy="230" r="0.7" fill="rgba(255,255,255,0.03)"/><circle cx="1130" cy="280" r="0.7" fill="rgba(255,255,255,0.03)"/><circle cx="1130" cy="330" r="0.7" fill="rgba(255,255,255,0.03)"/><circle cx="1130" cy="380" r="0.7" fill="rgba(255,255,255,0.03)"/><circle cx="1130" cy="430" r="0.7" fill="rgba(255,255,255,0.03)"/><circle cx="1130" cy="480" r="0.7" fill="rgba(255,255,255,0.03)"/><circle cx="1130" cy="530" r="0.7" fill="rgba(255,255,255,0.03)"/><circle cx="1130" cy="580" r="0.7" fill="rgba(255,255,255,0.03)"/><circle cx="1130" cy="630" r="0.7" fill="rgba(255,255,255,0.03)"/><circle cx="1180" cy="30" r="0.7" fill="rgba(255,255,255,0.03)"/><circle cx="1180" cy="80" r="0.7" fill="rgba(255,255,255,0.03)"/><circle cx="1180" cy="130" r="0.7" fill="rgba(255,255,255,0.03)"/><circle cx="1180" cy="180" r="0.7" fill="rgba(255,255,255,0.03)"/><circle cx="1180" cy="230" r="0.7" fill="rgba(255,255,255,0.03)"/><circle cx="1180" cy="280" r="0.7" fill="rgba(255,255,255,0.03)"/><circle cx="1180" cy="330" r="0.7" fill="rgba(255,255,255,0.03)"/><circle cx="1180" cy="380" r="0.7" fill="rgba(255,255,255,0.03)"/><circle cx="1180" cy="430" r="0.7" fill="rgba(255,255,255,0.03)"/><circle cx="1180" cy="480" r="0.7" fill="rgba(255,255,255,0.03)"/><circle cx="1180" cy="530" r="0.7" fill="rgba(255,255,255,0.03)"/><circle cx="1180" cy="580" r="0.7" fill="rgba(255,255,255,0.03)"/><circle cx="1180" cy="630" r="0.7" fill="rgba(255,255,255,0.03)"/>
  
  <text x="600" y="50" text-anchor="middle" fill="#f5f5f7" font-size="20" font-weight="600" letter-spacing="-0.5">Compress vs Expand</text>
  <text x="600" y="72" text-anchor="middle" fill="#6e6e73" font-size="11">Select, don't speed up · Develop, don't repeat</text>

  <!-- COMPRESS column -->
  <rect x="60" y="110" width="500" height="440" rx="16" fill="#1a1a1c" stroke="#0066cc" stroke-width="1.5"/>
  <rect x="60" y="110" width="500" height="50" rx="16" fill="rgba(0,102,204,0.12)"/>
  <rect x="60" y="140" width="500" height="20" fill="#1a1a1c"/>
  <text x="310" y="142" text-anchor="middle" fill="#0066cc" font-size="14" font-weight="600" letter-spacing="1.5">COMPRESS</text>

  
    <rect x="90" y="185" width="440" height="40" rx="8" fill="rgba(0,102,204,0.06)"/>
    <text x="115" y="210" fill="#d2d2d7" font-size="12">✓ Keep the central question</text>
  
    <rect x="90" y="240" width="440" height="40" rx="8" fill="rgba(0,102,204,0.06)"/>
    <text x="115" y="265" fill="#d2d2d7" font-size="12">✓ Keep the proof that answers it</text>
  
    <rect x="90" y="295" width="440" height="40" rx="8" fill="rgba(0,102,204,0.06)"/>
    <text x="115" y="320" fill="#d2d2d7" font-size="12">✓ Keep the final useful thought</text>
  
    <rect x="90" y="350" width="440" height="40" rx="8" fill="rgba(0,102,204,0.06)"/>
    <text x="115" y="375" fill="#d2d2d7" font-size="12">✗ Move out tool history</text>
  
    <rect x="90" y="405" width="440" height="40" rx="8" fill="rgba(0,102,204,0.06)"/>
    <text x="115" y="430" fill="#d2d2d7" font-size="12">✗ Remove extra examples</text>
  
    <rect x="90" y="460" width="440" height="40" rx="8" fill="rgba(0,102,204,0.06)"/>
    <text x="115" y="485" fill="#d2d2d7" font-size="12">✗ Cut background not required</text>
  
  <text x="310" y="525" text-anchor="middle" fill="#0066cc" font-size="11" font-weight="600">NOT: talk faster at double speed</text>

  <!-- EXPAND column -->
  <rect x="640" y="110" width="500" height="440" rx="16" fill="#1a1a1c" stroke="#2997ff" stroke-width="1.5"/>
  <rect x="640" y="110" width="500" height="50" rx="16" fill="rgba(41,151,255,0.12)"/>
  <rect x="640" y="140" width="500" height="20" fill="#1a1a1c"/>
  <text x="890" y="142" text-anchor="middle" fill="#2997ff" font-size="14" font-weight="600" letter-spacing="1.5">EXPAND</text>

  
    <rect x="670" y="185" width="440" height="40" rx="8" fill="rgba(41,151,255,0.06)"/>
    <text x="695" y="210" fill="#d2d2d7" font-size="12">+ New proof & counterexamples</text>
  
    <rect x="670" y="240" width="440" height="40" rx="8" fill="rgba(41,151,255,0.06)"/>
    <text x="695" y="265" fill="#d2d2d7" font-size="12">+ More context & application</text>
  
    <rect x="670" y="295" width="440" height="40" rx="8" fill="rgba(41,151,255,0.06)"/>
    <text x="695" y="320" fill="#d2d2d7" font-size="12">+ Competing explanations</text>
  
    <rect x="670" y="350" width="440" height="40" rx="8" fill="rgba(41,151,255,0.06)"/>
    <text x="695" y="375" fill="#d2d2d7" font-size="12">+ Chapter signposts for memory</text>
  
    <rect x="670" y="405" width="440" height="40" rx="8" fill="rgba(41,151,255,0.06)"/>
    <text x="695" y="430" fill="#d2d2d7" font-size="12">+ Genuine midpoint turns</text>
  
    <rect x="670" y="460" width="440" height="40" rx="8" fill="rgba(41,151,255,0.06)"/>
    <text x="695" y="485" fill="#d2d2d7" font-size="12">+ Recaps only if complex enough</text>
  
  <text x="890" y="525" text-anchor="middle" fill="#2997ff" font-size="11" font-weight="600">NOT: more minutes of the same</text>

  <text x="600" y="610" text-anchor="middle" fill="#4e4e53" font-size="9">The Scriptwriter's Atlas · Phase 8</text>

</svg>